<svg xmlns="http://www.w3.org/2000/svg" width="640" height="360"><defs><linearGradient id="a" x2="1" y2="1"><stop stop-color="#f5ecff"/><stop offset="1" stop-color="#b0dbff"/></linearGradient></defs><rect width="640" height="360" fill="url(#a)"/><g fill="none" stroke="#664cdd"><path d="m228 60-141 86 30 146 200 44 181-70 57-134-164-88z" stroke-width="4" opacity=".45"/><path d="m228 60 89 276m-200-44 274-248M87 146l411 120m57-134-438 160" stroke-width="2" opacity=".35"/></g><g transform="translate(219 61)"><path d="M22 134V99a79 79 0 0 1 158 0v35" fill="none" stroke="#20202a" stroke-width="32"/><rect x="0" y="112" width="54" height="119" rx="26" fill="#171821"/><rect x="148" y="112" width="54" height="119" rx="26" fill="#171821"/><path d="M53 187q48 26 96 0" fill="none" stroke="#333746" stroke-width="15"/></g><text x="33" y="65" fill="#34267d" font-family="Arial,sans-serif" font-size="29" font-weight="700">HEAR THE</text><text x="33" y="107" fill="#171533" font-family="Arial,sans-serif" font-size="39" font-weight="800">WHOLE ROOM</text></svg>
