<svg xmlns="http://www.w3.org/2000/svg" width="640" height="360"><defs><radialGradient id="a"><stop stop-color="#214b81"/><stop offset=".68" stop-color="#07101f"/><stop offset="1" stop-color="#02030a"/></radialGradient></defs><rect width="640" height="360" fill="url(#a)"/><circle cx="385" cy="385" r="230" fill="#1e76a9"/><path d="M182 309q209-100 409 5" fill="none" stroke="#8aefdc" stroke-width="13" opacity=".6"/><g fill="#eaf9ff" stroke="#9bdcff" stroke-width="3"><g transform="translate(161 83)"><rect width="52" height="28"/><path d="M-57 4h52v20h-52zm114 0h52v20H57z"/></g><g transform="translate(352 42)"><rect width="52" height="28"/><path d="M-57 4h52v20h-52zm114 0h52v20H57z"/></g><g transform="translate(514 109)"><rect width="52" height="28"/><path d="M-57 4h52v20h-52zm114 0h52v20H57z"/></g></g><path d="M187 107q118-76 190-49 108 39 163 65M187 107q165 85 353 16" fill="none" stroke="#6ef4d0" stroke-width="3" stroke-dasharray="8 8"/><text x="28" y="61" fill="white" font-family="Arial,sans-serif" font-size="30" font-weight="700">INTERNET</text><text x="28" y="101" fill="#78f4d4" font-family="Arial,sans-serif" font-size="38" font-weight="800">IN ORBIT</text></svg>
