<svg xmlns="http://www.w3.org/2000/svg" width="640" height="360"><defs><linearGradient id="a" x2="1" y2="1"><stop stop-color="#1f184c"/><stop offset="1" stop-color="#5333a8"/></linearGradient></defs><rect width="640" height="360" fill="url(#a)"/><g transform="translate(314 47)"><rect x="-83" y="18" width="176" height="118" rx="10" fill="#ff5e84" opacity=".85"/><rect x="81" y="71" width="176" height="118" rx="10" fill="#43d0b1" opacity=".85"/><rect x="-29" y="153" width="176" height="118" rx="10" fill="#f4b43e" opacity=".85"/><rect x="4" y="49" width="205" height="153" rx="12" fill="#f8f7ff" stroke="#fff" stroke-width="5"/><rect x="24" y="72" width="165" height="18" rx="9" fill="#7c64ff"/><rect x="24" y="106" width="72" height="68" rx="7" fill="#ddd8ff"/><rect x="111" y="106" width="78" height="15" rx="7" fill="#c8c3da"/><rect x="111" y="133" width="59" height="15" rx="7" fill="#c8c3da"/></g><path d="M244 185h-73" stroke="white" stroke-width="6"/><path d="m185 169-22 16 22 16" fill="none" stroke="white" stroke-width="6"/><text x="29" y="66" fill="#bcb1ff" font-family="Arial,sans-serif" font-size="27" font-weight="700">EVERYTHING</text><text x="29" y="110" fill="white" font-family="Arial,sans-serif" font-size="40" font-weight="800">ONE PLACE</text></svg>
