<svg xmlns="http://www.w3.org/2000/svg" width="640" height="360"><defs><linearGradient id="a" x2="1" y2="1"><stop stop-color="#22180d"/><stop offset="1" stop-color="#50331b"/></linearGradient></defs><rect width="640" height="360" fill="url(#a)"/><g transform="translate(95 90) rotate(-6 225 95)"><path d="m0 42 184-42 18 36 49 0L270 0l180 42-33 145-159-22-14 0-211 22z" fill="#332f2b" stroke="#bf8a50" stroke-width="5"/><g fill="#ffb64d"><g transform="translate(33 57)"><rect width="32" height="26" rx="5"/><rect x="41" width="32" height="26" rx="5"/><rect x="82" width="32" height="26" rx="5"/><rect x="123" width="32" height="26" rx="5"/><rect x="17" y="36" width="32" height="26" rx="5"/><rect x="58" y="36" width="32" height="26" rx="5"/><rect x="99" y="36" width="56" height="26" rx="5"/></g><g transform="translate(272 57)"><rect width="32" height="26" rx="5"/><rect x="41" width="32" height="26" rx="5"/><rect x="82" width="32" height="26" rx="5"/><rect x="123" width="32" height="26" rx="5"/><rect y="36" width="56" height="26" rx="5"/><rect x="65" y="36" width="32" height="26" rx="5"/><rect x="106" y="36" width="49" height="26" rx="5"/></g></g></g><text x="34" y="61" fill="#ffd59d" font-family="Arial,sans-serif" font-size="32" font-weight="800">THE LAST KEYBOARD</text><text x="34" y="325" fill="white" font-family="Arial,sans-serif" font-size="26" font-weight="700">BUILT, NOT BOUGHT.</text></svg>
