<svg xmlns="http://www.w3.org/2000/svg" width="640" height="360"><defs><linearGradient id="a" y2="1"><stop stop-color="#ff9f43"/><stop offset=".52" stop-color="#ffd777"/><stop offset=".53" stop-color="#7c9bc0"/><stop offset="1" stop-color="#243856"/></linearGradient></defs><rect width="640" height="360" fill="url(#a)"/><circle cx="509" cy="80" r="86" fill="#fff2a8"/><g fill="#101e37" stroke="#739acc" stroke-width="3"><path d="m12 264 154-43 31 109-154 30z"/><path d="m181 218 154-43 31 109-154 43z"/><path d="m349 170 154-43 31 109-154 43z"/><path d="m484 218 143-20 13 109-143 20z"/></g><g stroke="#8bb8ee" opacity=".8"><path d="m46 254 154 0m-139 42h154m13-90 154 0m-139 43h154m-4-85 154 0m-139 43h154"/></g><text x="30" y="69" fill="#17243a" font-family="Arial,sans-serif" font-size="31" font-weight="700">SOLAR WON.</text><text x="30" y="116" fill="#17243a" font-family="Arial,sans-serif" font-size="43" font-weight="800">NOW WHAT?</text></svg>
