<svg xmlns="http://www.w3.org/2000/svg" width="640" height="360"><rect width="640" height="360" fill="#ffe75c"/><g transform="translate(260 44)"><rect width="290" height="245" rx="16" fill="#168c72"/><g fill="#f7f2dc"><rect x="25" y="28" width="54" height="44" rx="6"/><rect x="103" y="28" width="75" height="44" rx="6"/><rect x="202" y="28" width="62" height="44" rx="6"/><circle cx="54" cy="121" r="24"/><circle cx="145" cy="121" r="24"/><rect x="194" y="100" width="67" height="43" rx="6"/><rect x="33" y="172" width="110" height="45" rx="5"/><rect x="168" y="172" width="92" height="45" rx="5"/></g><g stroke="#fff" stroke-width="4"><path d="M79 50h24m75 0h24M54 145v27m91-27v27m83-29v29"/></g></g><text x="32" y="67" fill="#112b26" font-family="Arial,sans-serif" font-size="29" font-weight="700">BUILD IT.</text><text x="32" y="115" fill="#112b26" font-family="Arial,sans-serif" font-size="46" font-weight="800">OPEN IT.</text><text x="32" y="163" fill="#112b26" font-family="Arial,sans-serif" font-size="46" font-weight="800">SHARE IT.</text></svg>
