<svg xmlns="http://www.w3.org/2000/svg" width="640" height="360"><rect width="640" height="360" fill="#11131a"/><g transform="translate(278 48)"><rect x="0" y="0" width="119" height="85" rx="12" fill="#6a5cff"/><rect x="146" y="18" width="119" height="85" rx="12" fill="#ff5a83"/><rect x="43" y="115" width="119" height="85" rx="12" fill="#27c7a8"/><rect x="190" y="133" width="119" height="85" rx="12" fill="#f2a63b"/><rect x="91" y="226" width="119" height="85" rx="12" fill="#42a5f5"/><g fill="white"><circle cx="59" cy="42" r="15"/><circle cx="205" cy="60" r="15"/><circle cx="102" cy="157" r="15"/><circle cx="249" cy="175" r="15"/><circle cx="150" cy="268" r="15"/></g><path d="M59 58v12m146 6v12m-103 85v12m147 6v12m-99 81v12" stroke="white" stroke-width="6"/></g><text x="34" y="72" fill="#8c82ff" font-family="Arial,sans-serif" font-size="27" font-weight="700">5 AGENTS</text><text x="34" y="122" fill="white" font-family="Arial,sans-serif" font-size="46" font-weight="800">1 NIGHT</text><text x="34" y="173" fill="white" font-family="Arial,sans-serif" font-size="46" font-weight="800">A PRODUCT?</text></svg>
