<svg xmlns="http://www.w3.org/2000/svg" width="640" height="360"><rect width="640" height="360" fill="#f5efe5"/><g transform="translate(267 51)"><path d="M0 106 146 0l146 106v182H0z" fill="#fff" stroke="#333" stroke-width="6"/><path d="M146 4v284M0 106h292M0 204h292" stroke="#d2cec6" stroke-width="4"/><rect x="30" y="131" width="82" height="49" fill="#8ad1ff"/><rect x="180" y="131" width="82" height="49" fill="#9de2b6"/><rect x="31" y="223" width="76" height="65" fill="#ffbf7a"/><circle cx="146" cy="164" r="44" fill="#715bff"/><circle cx="146" cy="164" r="16" fill="white"/><path d="M146 120V72m-39 70-65-21m65 65-57 45m96-23v61m39-83 57 45m-57-89 65-21" stroke="#715bff" stroke-width="5"/></g><text x="30" y="74" fill="#202021" font-family="Arial,sans-serif" font-size="32" font-weight="700">SMART HOME</text><text x="30" y="120" fill="#715bff" font-family="Arial,sans-serif" font-size="42" font-weight="800">REBOOT</text></svg>
