<svg xmlns="http://www.w3.org/2000/svg" width="640" height="360"><defs><linearGradient id="a" y2="1"><stop stop-color="#70472d"/><stop offset="1" stop-color="#2d1e18"/></linearGradient></defs><rect width="640" height="360" fill="url(#a)"/><g transform="translate(235 56) rotate(-4 160 120)"><rect width="330" height="230" rx="15" fill="#1c8e72" stroke="#e2b56e" stroke-width="6"/><g fill="#efd07a"><circle cx="61" cy="55" r="22"/><circle cx="165" cy="54" r="16"/><circle cx="269" cy="54" r="25"/><rect x="37" y="104" width="89" height="51" rx="6"/><rect x="153" y="91" width="57" height="79" rx="6"/><rect x="238" y="106" width="57" height="49" rx="6"/></g><g stroke="#fff1bb" stroke-width="4"><path d="M61 77v27m104-34v21m104-12v27M126 130h27m57 0h28M81 155v46m104-31v31m82-46v46"/></g></g><path d="M101 60q-54 46-30 113l76-8 39-105z" fill="#c4845f"/><path d="M507 290q65-53 44-113l-78 5-45 94z" fill="#c4845f"/><text x="27" y="335" fill="white" font-family="Arial,sans-serif" font-size="32" font-weight="800">MADE BY HAND.</text></svg>
