<svg xmlns="http://www.w3.org/2000/svg" width="640" height="360"><defs><linearGradient id="a" x2="1"><stop stop-color="#ff3c38"/><stop offset=".47" stop-color="#6d1724"/><stop offset=".53" stop-color="#095e8e"/><stop offset="1" stop-color="#18b8e6"/></linearGradient></defs><rect width="640" height="360" fill="url(#a)"/><g transform="translate(207 63)"><rect width="226" height="226" rx="22" fill="#181d25" stroke="#fff" stroke-width="6"/><rect x="39" y="39" width="148" height="148" rx="9" fill="#e73d47"/><path d="M74 88h78M74 113h78M74 138h48" stroke="white" stroke-width="10"/><g stroke="#fff" stroke-width="5"><path d="M39 0v-26m50 26v-26m50 26v-26m50 26v-26M39 226v26m50-26v26m50-26v26m50-26v26M0 39h-26m26 50h-26m26 50h-26m26 50h-26m252-150h26m-26 50h26m-26 50h26m-26 50h26"/></g></g><path d="M490 59c-35 41-56 79-56 111a62 62 0 0 0 124 0c0-32-23-70-68-111" fill="#8be7ff" opacity=".85"/><text x="27" y="70" fill="white" font-family="Arial,sans-serif" font-size="28" font-weight="700">AI HAS A</text><text x="27" y="114" fill="white" font-family="Arial,sans-serif" font-size="43" font-weight="800">HEAT</text><text x="27" y="155" fill="white" font-family="Arial,sans-serif" font-size="43" font-weight="800">PROBLEM</text></svg>
