<svg xmlns="http://www.w3.org/2000/svg" width="640" height="360"><rect width="640" height="360" fill="#f15f4d"/><g transform="translate(63 91)"><path d="M75 0C31 0 0 37 0 83v38c0 46 31 83 75 83s75-37 75-83V83C150 37 119 0 75 0" fill="#f5f2e9"/><path d="M75 2v79" stroke="#555" stroke-width="5"/><path d="m-16-13 182 230M166-13-16 217" stroke="#8e1720" stroke-width="16"/></g><g transform="translate(329 52)" fill="#fff" opacity=".94"><rect x="0" y="0" width="170" height="98" rx="9"/><rect x="52" y="115" width="194" height="109" rx="9"/><rect x="-35" y="240" width="177" height="71" rx="9"/></g><path d="M342 251q66-72 126-21t94-41" fill="none" stroke="#3027c9" stroke-width="13"/><circle cx="342" cy="251" r="13" fill="#3027c9"/><text x="34" y="328" fill="white" font-family="Arial,sans-serif" font-size="38" font-weight="800">BEYOND THE MOUSE</text></svg>
